<svg width="89" height="151" viewBox="0 0 89 151" fill="none" xmlns="http://www.w3.org/2000/svg">
<mask id="path-1-outside-1_65_20" maskUnits="userSpaceOnUse" x="0" y="0" width="89" height="151" fill="black">
<rect fill="white" width="89" height="151"/>
<path d="M84.1666 73.6948C85.7119 67.7631 82.6213 61.5736 76.6969 59.5104C74.3788 58.7367 71.5454 58.7367 69.2272 59.5104C69.2272 54.8684 66.1363 50.484 61.5001 48.9367L60.9848 48.6789C58.1514 47.9051 55.0604 47.9051 52.4848 49.1948L58.4092 17.4738C58.9245 13.8634 58.4092 10.2527 56.606 7.41576C54.2876 4.06317 50.9392 2 47.3333 2C40.8939 2 36.5152 8.18952 35.4849 14.6369L30.3333 47.9054L25.1818 16.9579C22.6062 6.12634 16.9393 4.57882 13.8484 4.57882C10.2425 4.57882 6.63624 6.64199 4.31812 9.99458C2.51501 12.8315 1.7425 16.4419 2.25751 20.0526L9.72717 69.5685L13.0756 85.8157L10.7575 87.6211C10.6554 87.6825 10.5642 87.7523 10.4782 87.8255C2.75933 93.4376 2 99.3254 2 107.479V107.737C2 118.568 9.46966 126.821 12.3031 129.4V138.684C12.3031 144.358 16.9393 149 22.6062 149H69.2272C74.8938 149 79.2728 144.616 79.2728 138.684V129.142C86.7425 119.084 87 115.474 87 97.421C87 87.8792 84.4241 77.0474 84.1666 73.6948ZM52.7423 80.9159C53.1722 79.8938 53.409 78.8042 53.481 77.6896C53.7944 74.979 53.1303 72.3494 51.694 70.2589C50.8271 68.6942 49.6895 67.2943 48.3636 66.2156L51.197 57.9629C52.4848 54.6103 55.8332 53.0628 59.182 54.0944L59.6973 54.3522C60.852 54.7375 61.8623 55.4114 62.6219 56.3726C63.6226 57.9195 63.9048 59.8736 63.3032 61.8311L61.5001 66.9891C61.4229 67.2205 61.3779 67.4453 61.3561 67.6635L52.5657 93.0897C50.99 95.4905 48.1336 96.4968 45.2729 95.6154L44.7576 95.3575C44.5001 95.3575 43.9848 95.0997 43.7273 94.8416C48.1058 89.1686 51.4545 84.2685 52.7423 80.9159ZM57.1211 95.6159L57.1993 95.3891C57.5667 94.808 57.8873 94.1947 58.1514 93.5528L67.3456 67.0864C67.3869 67.0353 67.4276 66.9836 67.4703 66.9334C67.6751 66.6948 67.8993 66.4691 68.1393 66.2584C68.3793 66.0476 68.6351 65.8515 68.9032 65.6718C69.1716 65.4921 69.4521 65.329 69.742 65.184C71.2873 64.4102 73.0904 64.4102 74.636 64.9262C76.1816 65.4421 77.4694 66.7315 78.242 68.2788C79.0148 69.826 79.0147 71.6313 78.4995 73.1789L69.2267 100C68.7114 101.548 67.4236 102.837 65.8783 103.611C64.3329 104.385 62.5298 104.385 60.9842 103.869C59.4386 103.353 58.1508 102.063 57.3783 100.516C56.6061 98.9685 56.606 97.1635 57.1211 95.6159ZM14.8787 68.795L7.40905 19.2789C7.15154 16.7 7.40905 14.6369 8.69686 12.8315C9.98467 11.0262 12.0453 9.73675 13.8484 9.73675C17.4543 9.73675 19.2575 14.3787 20.0303 17.9894L27.7574 64.4105C28.0149 65.4421 29.0452 66.4737 30.333 66.4737C31.6209 66.4737 32.6512 65.6999 32.9087 64.4105L40.6358 15.4103C41.4086 11.284 43.9843 7.15764 47.3327 7.15764C49.1358 7.15764 50.9386 8.18923 51.9689 9.99458C52.9992 11.7999 53.5143 14.1209 52.9993 16.4419L45.0143 58.9948C44.9234 59.4504 44.9632 59.9049 45.1066 60.3149L42.9815 66.3942C40.6642 66.6279 37.8231 67.5773 34.4537 69.8266C31.0293 72.1125 24.0918 77.3529 17.4816 82.4304L14.8787 68.795ZM74.6363 126.821C74.1213 127.337 74.1213 127.853 74.1213 128.627V138.685C74.1213 141.522 72.0607 143.843 69.2272 143.843H22.6059C19.7725 143.843 17.4543 141.522 17.4543 138.685V128.369C17.4543 127.595 17.1968 126.822 16.424 126.306C16.424 126.306 7.40876 118.569 7.15125 107.995C7.15125 99.7426 7.66655 96.1322 13.8481 91.748C14.1056 91.748 14.1056 91.748 14.1056 91.748L16.4891 89.7285C24.6301 83.5128 33.5734 76.7674 37.2874 74.211C41.4086 71.3741 44.7571 70.8584 46.8177 72.4057C48.363 73.6951 48.8783 76.532 48.1055 78.853C47.9515 79.2231 47.7623 79.6285 47.5435 80.062C43.2184 88.3994 27.9794 101.154 22.0903 103.611C20.8025 104.127 20.2872 105.674 20.8025 106.964C21.06 107.995 22.0903 108.511 23.1206 108.511C23.3781 108.511 23.6359 108.511 24.1509 108.253C27.5108 106.758 33.3959 102.554 39.0174 97.5022C40.2195 98.7948 41.7149 99.6162 43.2115 100.258L43.7268 100.516C44.7571 100.774 46.0449 101.032 47.3327 101.032C48.8909 101.032 50.4196 100.681 51.8316 100.05C52.0243 100.994 52.3297 101.929 52.7417 102.837C54.2871 105.674 56.6055 107.737 59.4386 108.769C60.7264 109.027 62.0142 109.285 63.3023 109.285C65.1054 109.285 66.9086 108.769 68.1964 108.253C71.0298 106.706 73.0904 104.385 74.1207 101.548L80.3952 83.3988C81.1522 87.5903 81.8479 92.7198 81.8479 97.4216C81.8484 115.474 81.5907 117.537 74.6363 126.821Z"/>
</mask>
<path d="M84.1666 73.6948C85.7119 67.7631 82.6213 61.5736 76.6969 59.5104C74.3788 58.7367 71.5454 58.7367 69.2272 59.5104C69.2272 54.8684 66.1363 50.484 61.5001 48.9367L60.9848 48.6789C58.1514 47.9051 55.0604 47.9051 52.4848 49.1948L58.4092 17.4738C58.9245 13.8634 58.4092 10.2527 56.606 7.41576C54.2876 4.06317 50.9392 2 47.3333 2C40.8939 2 36.5152 8.18952 35.4849 14.6369L30.3333 47.9054L25.1818 16.9579C22.6062 6.12634 16.9393 4.57882 13.8484 4.57882C10.2425 4.57882 6.63624 6.64199 4.31812 9.99458C2.51501 12.8315 1.7425 16.4419 2.25751 20.0526L9.72717 69.5685L13.0756 85.8157L10.7575 87.6211C10.6554 87.6825 10.5642 87.7523 10.4782 87.8255C2.75933 93.4376 2 99.3254 2 107.479V107.737C2 118.568 9.46966 126.821 12.3031 129.4V138.684C12.3031 144.358 16.9393 149 22.6062 149H69.2272C74.8938 149 79.2728 144.616 79.2728 138.684V129.142C86.7425 119.084 87 115.474 87 97.421C87 87.8792 84.4241 77.0474 84.1666 73.6948ZM52.7423 80.9159C53.1722 79.8938 53.409 78.8042 53.481 77.6896C53.7944 74.979 53.1303 72.3494 51.694 70.2589C50.8271 68.6942 49.6895 67.2943 48.3636 66.2156L51.197 57.9629C52.4848 54.6103 55.8332 53.0628 59.182 54.0944L59.6973 54.3522C60.852 54.7375 61.8623 55.4114 62.6219 56.3726C63.6226 57.9195 63.9048 59.8736 63.3032 61.8311L61.5001 66.9891C61.4229 67.2205 61.3779 67.4453 61.3561 67.6635L52.5657 93.0897C50.99 95.4905 48.1336 96.4968 45.2729 95.6154L44.7576 95.3575C44.5001 95.3575 43.9848 95.0997 43.7273 94.8416C48.1058 89.1686 51.4545 84.2685 52.7423 80.9159ZM57.1211 95.6159L57.1993 95.3891C57.5667 94.808 57.8873 94.1947 58.1514 93.5528L67.3456 67.0864C67.3869 67.0353 67.4276 66.9836 67.4703 66.9334C67.6751 66.6948 67.8993 66.4691 68.1393 66.2584C68.3793 66.0476 68.6351 65.8515 68.9032 65.6718C69.1716 65.4921 69.4521 65.329 69.742 65.184C71.2873 64.4102 73.0904 64.4102 74.636 64.9262C76.1816 65.4421 77.4694 66.7315 78.242 68.2788C79.0148 69.826 79.0147 71.6313 78.4995 73.1789L69.2267 100C68.7114 101.548 67.4236 102.837 65.8783 103.611C64.3329 104.385 62.5298 104.385 60.9842 103.869C59.4386 103.353 58.1508 102.063 57.3783 100.516C56.6061 98.9685 56.606 97.1635 57.1211 95.6159ZM14.8787 68.795L7.40905 19.2789C7.15154 16.7 7.40905 14.6369 8.69686 12.8315C9.98467 11.0262 12.0453 9.73675 13.8484 9.73675C17.4543 9.73675 19.2575 14.3787 20.0303 17.9894L27.7574 64.4105C28.0149 65.4421 29.0452 66.4737 30.333 66.4737C31.6209 66.4737 32.6512 65.6999 32.9087 64.4105L40.6358 15.4103C41.4086 11.284 43.9843 7.15764 47.3327 7.15764C49.1358 7.15764 50.9386 8.18923 51.9689 9.99458C52.9992 11.7999 53.5143 14.1209 52.9993 16.4419L45.0143 58.9948C44.9234 59.4504 44.9632 59.9049 45.1066 60.3149L42.9815 66.3942C40.6642 66.6279 37.8231 67.5773 34.4537 69.8266C31.0293 72.1125 24.0918 77.3529 17.4816 82.4304L14.8787 68.795ZM74.6363 126.821C74.1213 127.337 74.1213 127.853 74.1213 128.627V138.685C74.1213 141.522 72.0607 143.843 69.2272 143.843H22.6059C19.7725 143.843 17.4543 141.522 17.4543 138.685V128.369C17.4543 127.595 17.1968 126.822 16.424 126.306C16.424 126.306 7.40876 118.569 7.15125 107.995C7.15125 99.7426 7.66655 96.1322 13.8481 91.748C14.1056 91.748 14.1056 91.748 14.1056 91.748L16.4891 89.7285C24.6301 83.5128 33.5734 76.7674 37.2874 74.211C41.4086 71.3741 44.7571 70.8584 46.8177 72.4057C48.363 73.6951 48.8783 76.532 48.1055 78.853C47.9515 79.2231 47.7623 79.6285 47.5435 80.062C43.2184 88.3994 27.9794 101.154 22.0903 103.611C20.8025 104.127 20.2872 105.674 20.8025 106.964C21.06 107.995 22.0903 108.511 23.1206 108.511C23.3781 108.511 23.6359 108.511 24.1509 108.253C27.5108 106.758 33.3959 102.554 39.0174 97.5022C40.2195 98.7948 41.7149 99.6162 43.2115 100.258L43.7268 100.516C44.7571 100.774 46.0449 101.032 47.3327 101.032C48.8909 101.032 50.4196 100.681 51.8316 100.05C52.0243 100.994 52.3297 101.929 52.7417 102.837C54.2871 105.674 56.6055 107.737 59.4386 108.769C60.7264 109.027 62.0142 109.285 63.3023 109.285C65.1054 109.285 66.9086 108.769 68.1964 108.253C71.0298 106.706 73.0904 104.385 74.1207 101.548L80.3952 83.3988C81.1522 87.5903 81.8479 92.7198 81.8479 97.4216C81.8484 115.474 81.5907 117.537 74.6363 126.821Z" fill="black"/>
<path d="M84.1666 73.6948C85.7119 67.7631 82.6213 61.5736 76.6969 59.5104C74.3788 58.7367 71.5454 58.7367 69.2272 59.5104C69.2272 54.8684 66.1363 50.484 61.5001 48.9367L60.9848 48.6789C58.1514 47.9051 55.0604 47.9051 52.4848 49.1948L58.4092 17.4738C58.9245 13.8634 58.4092 10.2527 56.606 7.41576C54.2876 4.06317 50.9392 2 47.3333 2C40.8939 2 36.5152 8.18952 35.4849 14.6369L30.3333 47.9054L25.1818 16.9579C22.6062 6.12634 16.9393 4.57882 13.8484 4.57882C10.2425 4.57882 6.63624 6.64199 4.31812 9.99458C2.51501 12.8315 1.7425 16.4419 2.25751 20.0526L9.72717 69.5685L13.0756 85.8157L10.7575 87.6211C10.6554 87.6825 10.5642 87.7523 10.4782 87.8255C2.75933 93.4376 2 99.3254 2 107.479V107.737C2 118.568 9.46966 126.821 12.3031 129.4V138.684C12.3031 144.358 16.9393 149 22.6062 149H69.2272C74.8938 149 79.2728 144.616 79.2728 138.684V129.142C86.7425 119.084 87 115.474 87 97.421C87 87.8792 84.4241 77.0474 84.1666 73.6948ZM52.7423 80.9159C53.1722 79.8938 53.409 78.8042 53.481 77.6896C53.7944 74.979 53.1303 72.3494 51.694 70.2589C50.8271 68.6942 49.6895 67.2943 48.3636 66.2156L51.197 57.9629C52.4848 54.6103 55.8332 53.0628 59.182 54.0944L59.6973 54.3522C60.852 54.7375 61.8623 55.4114 62.6219 56.3726C63.6226 57.9195 63.9048 59.8736 63.3032 61.8311L61.5001 66.9891C61.4229 67.2205 61.3779 67.4453 61.3561 67.6635L52.5657 93.0897C50.99 95.4905 48.1336 96.4968 45.2729 95.6154L44.7576 95.3575C44.5001 95.3575 43.9848 95.0997 43.7273 94.8416C48.1058 89.1686 51.4545 84.2685 52.7423 80.9159ZM57.1211 95.6159L57.1993 95.3891C57.5667 94.808 57.8873 94.1947 58.1514 93.5528L67.3456 67.0864C67.3869 67.0353 67.4276 66.9836 67.4703 66.9334C67.6751 66.6948 67.8993 66.4691 68.1393 66.2584C68.3793 66.0476 68.6351 65.8515 68.9032 65.6718C69.1716 65.4921 69.4521 65.329 69.742 65.184C71.2873 64.4102 73.0904 64.4102 74.636 64.9262C76.1816 65.4421 77.4694 66.7315 78.242 68.2788C79.0148 69.826 79.0147 71.6313 78.4995 73.1789L69.2267 100C68.7114 101.548 67.4236 102.837 65.8783 103.611C64.3329 104.385 62.5298 104.385 60.9842 103.869C59.4386 103.353 58.1508 102.063 57.3783 100.516C56.6061 98.9685 56.606 97.1635 57.1211 95.6159ZM14.8787 68.795L7.40905 19.2789C7.15154 16.7 7.40905 14.6369 8.69686 12.8315C9.98467 11.0262 12.0453 9.73675 13.8484 9.73675C17.4543 9.73675 19.2575 14.3787 20.0303 17.9894L27.7574 64.4105C28.0149 65.4421 29.0452 66.4737 30.333 66.4737C31.6209 66.4737 32.6512 65.6999 32.9087 64.4105L40.6358 15.4103C41.4086 11.284 43.9843 7.15764 47.3327 7.15764C49.1358 7.15764 50.9386 8.18923 51.9689 9.99458C52.9992 11.7999 53.5143 14.1209 52.9993 16.4419L45.0143 58.9948C44.9234 59.4504 44.9632 59.9049 45.1066 60.3149L42.9815 66.3942C40.6642 66.6279 37.8231 67.5773 34.4537 69.8266C31.0293 72.1125 24.0918 77.3529 17.4816 82.4304L14.8787 68.795ZM74.6363 126.821C74.1213 127.337 74.1213 127.853 74.1213 128.627V138.685C74.1213 141.522 72.0607 143.843 69.2272 143.843H22.6059C19.7725 143.843 17.4543 141.522 17.4543 138.685V128.369C17.4543 127.595 17.1968 126.822 16.424 126.306C16.424 126.306 7.40876 118.569 7.15125 107.995C7.15125 99.7426 7.66655 96.1322 13.8481 91.748C14.1056 91.748 14.1056 91.748 14.1056 91.748L16.4891 89.7285C24.6301 83.5128 33.5734 76.7674 37.2874 74.211C41.4086 71.3741 44.7571 70.8584 46.8177 72.4057C48.363 73.6951 48.8783 76.532 48.1055 78.853C47.9515 79.2231 47.7623 79.6285 47.5435 80.062C43.2184 88.3994 27.9794 101.154 22.0903 103.611C20.8025 104.127 20.2872 105.674 20.8025 106.964C21.06 107.995 22.0903 108.511 23.1206 108.511C23.3781 108.511 23.6359 108.511 24.1509 108.253C27.5108 106.758 33.3959 102.554 39.0174 97.5022C40.2195 98.7948 41.7149 99.6162 43.2115 100.258L43.7268 100.516C44.7571 100.774 46.0449 101.032 47.3327 101.032C48.8909 101.032 50.4196 100.681 51.8316 100.05C52.0243 100.994 52.3297 101.929 52.7417 102.837C54.2871 105.674 56.6055 107.737 59.4386 108.769C60.7264 109.027 62.0142 109.285 63.3023 109.285C65.1054 109.285 66.9086 108.769 68.1964 108.253C71.0298 106.706 73.0904 104.385 74.1207 101.548L80.3952 83.3988C81.1522 87.5903 81.8479 92.7198 81.8479 97.4216C81.8484 115.474 81.5907 117.537 74.6363 126.821Z" stroke="black" stroke-width="4" mask="url(#path-1-outside-1_65_20)"/>
</svg>
