<svg width="435" height="361" viewBox="0 0 435 361" fill="none" xmlns="http://www.w3.org/2000/svg">
<g filter="url(#filter0_b_32_55)">
<path d="M361.171 405.593L335.071 383.544C334.486 383.05 333.67 382.933 332.969 383.244L295.353 399.922C295.242 399.971 295.125 400.011 295.007 400.039C274.542 404.948 265.367 404.579 252.334 399.709C252.242 399.675 252.15 399.632 252.064 399.584L196.827 368.868C196.74 368.819 196.653 368.762 196.574 368.701C179.247 355.273 177.644 346.174 184.736 328.089L194.69 302.644M288.539 256.466C288.539 256.466 295.704 232.693 290.541 231.925C290.158 231.868 289.526 232.272 288.562 232.212M288.539 256.466C287.119 258.77 285.604 260.769 283.858 262.514M288.539 256.466L283.858 262.514M239.477 297.929L246.737 275.331C246.98 274.574 247.655 274.032 248.446 273.949C267.904 271.899 277.444 268.921 283.858 262.514M239.477 297.929C230.972 298.531 226.92 299.81 220.537 303.199M239.477 297.929C269.32 299.59 285.75 302.819 305.547 311.092M194.69 302.644L222.573 231.374C222.877 230.595 223.63 230.088 224.466 230.103C227.562 230.159 235.504 230.303 244.864 230.498M194.69 302.644L162.666 244.334C162.515 244.059 162.302 243.824 162.044 243.647L9.99631 139.314C9.89763 139.247 9.80307 139.169 9.71884 139.084C5.92911 135.259 6.50899 132.647 8.11885 128.06C8.17166 127.909 8.2432 127.764 8.33038 127.63L23.4971 104.396C28.0598 98.4625 32.2207 100.069 37.3524 102.389L176.344 187.028C177.304 187.613 178.557 187.292 179.117 186.318L182.044 181.232C182.353 180.694 182.395 180.043 182.158 179.469L121.929 34.0563C119.007 26.5247 120.444 24.6278 124.105 22.1906C124.193 22.1317 124.287 22.0796 124.384 22.0359L155.536 7.96827C161.711 5.38645 163.929 7.68002 167.333 13.1686C167.394 13.2673 167.447 13.3731 167.49 13.481L227.758 164.733M227.758 164.733C234.374 184.042 238.207 194.946 242.278 212.646C244.688 220.384 245.156 224.239 244.864 230.498M227.758 164.733L271.082 153.404C277.467 152.342 279.817 153.985 281.774 160.949M244.864 230.498C261.098 230.835 281.665 231.784 288.562 232.212M281.774 160.949L288.562 232.212M281.774 160.949L282.593 166.605C282.739 167.611 283.617 168.348 284.634 168.317L322.028 167.179C322.393 167.168 322.759 167.259 323.077 167.439C335.182 174.311 340.707 178.798 359.36 204.778C374.194 228.113 380.61 247.681 387.077 298.343C387.151 298.918 387.472 299.448 387.955 299.77L430.81 328.31M283.858 262.514C286.362 272.786 288.411 274.961 292.748 275.055L319.482 278.67C320.63 278.826 321.67 277.976 321.746 276.819L326.959 197.347" stroke="#17242A" stroke-opacity="0.28" stroke-width="12"/>
</g>
<defs>
<filter id="filter0_b_32_55" x="-3.12337" y="-3.09232" width="441.259" height="417.269" filterUnits="userSpaceOnUse" color-interpolation-filters="sRGB">
<feFlood flood-opacity="0" result="BackgroundImageFix"/>
<feGaussianBlur in="BackgroundImageFix" stdDeviation="2"/>
<feComposite in2="SourceAlpha" operator="in" result="effect1_backgroundBlur_32_55"/>
<feBlend mode="normal" in="SourceGraphic" in2="effect1_backgroundBlur_32_55" result="shape"/>
</filter>
</defs>
</svg>
