<svg width="412" height="340" viewBox="0 0 412 340" fill="none" xmlns="http://www.w3.org/2000/svg">
<g filter="url(#filter0_b_33_57)">
<path d="M364.596 333.91C343.136 321.828 326.774 315.036 301.545 305.646M301.545 305.646C280.269 302.052 264.512 298.129 236.45 292.239C236.309 292.21 236.17 292.164 236.038 292.106L59.9531 213.017C59.8246 212.96 59.7005 212.887 59.5871 212.803C54.3031 208.906 52.2197 206.506 52.5811 201.793C52.5945 201.617 52.6349 201.443 52.6964 201.279L62.0788 176.135M301.545 305.646C347.938 278.093 365.982 263.85 378.038 242.978M62.0788 176.135L169.451 215.917M62.0788 176.135L27.1027 157.57C19.9196 154.295 19.8693 152.357 21.2056 145.398C21.2243 145.3 21.2508 145.202 21.2838 145.109L35.5045 104.791M35.5045 104.791L148.19 160.201M35.5045 104.791L11.1077 93.4421C4.96288 90.0192 5.1365 87.298 7.59109 81.9689L17.126 52.01C17.1629 51.8939 17.2114 51.7791 17.2696 51.672C21.2478 44.3467 26.3691 42.9003 33.1577 44.7482C33.2696 44.7787 33.3798 44.8201 33.4844 44.8701L37.9921 47.0258M177.943 113.952L37.9921 47.0258M37.9921 47.0258L50.7514 11.2145C53.3221 6.29092 56.1195 6.07382 62.0785 7.65886C62.1745 7.68438 62.2702 7.71781 62.3612 7.75749L236.677 83.7717M290.401 107.199L236.677 83.7717M236.677 83.7717L243.727 62.4108C247.033 55.3053 253.036 52.4471 261.052 52.3939C282.065 49.6229 292.495 49.1918 309.836 49.4692C320.817 50.223 326.387 53.4026 337.063 61.5195L389.527 109.208C389.824 109.478 390.032 109.825 390.123 110.216C397.518 141.822 396.831 191.724 395.076 192.781C393.311 193.846 468.769 238.702 468.769 238.702" stroke="#17242A" stroke-opacity="0.28" stroke-width="12"/>
</g>
<defs>
<filter id="filter0_b_33_57" x="-3.99817" y="-3.21594" width="479.832" height="346.354" filterUnits="userSpaceOnUse" color-interpolation-filters="sRGB">
<feFlood flood-opacity="0" result="BackgroundImageFix"/>
<feGaussianBlur in="BackgroundImageFix" stdDeviation="2"/>
<feComposite in2="SourceAlpha" operator="in" result="effect1_backgroundBlur_33_57"/>
<feBlend mode="normal" in="SourceGraphic" in2="effect1_backgroundBlur_33_57" result="shape"/>
</filter>
</defs>
</svg>
