<svg width="315" height="358" viewBox="0 0 315 358" fill="none" xmlns="http://www.w3.org/2000/svg">
<g filter="url(#filter0_b_33_56)">
<path d="M5.82444 285.243L39.3092 236.412C39.5463 236.066 39.6702 235.72 39.661 235.301C39.4827 227.138 37.5404 135.289 40.2463 126.276C43.0422 116.964 80.3988 71.1723 81.353 70.0036C81.383 69.9669 81.3853 69.9614 81.4126 69.9227L111.471 27.2835C114.755 22.3409 120.457 20.2338 127.747 22.152L150.677 29.9905M150.677 29.9905L184.22 48.975C184.33 49.0374 184.435 49.1105 184.531 49.1925C192.031 55.5735 198.661 61.2729 205.888 68.5426M150.677 29.9905L156.176 13.6192C158.272 8.21938 161.558 6.0283 166.977 6.41992L214.734 9.49572C214.961 9.51034 215.187 9.56445 215.396 9.65446C220.111 11.6863 221.211 12.5051 221.142 19.0819C221.14 19.2514 221.116 19.4243 221.071 19.5878L215.854 38.5332M109.257 148.003L113.878 138.789M121.552 122.309L136.297 91.497C136.865 90.3094 138.406 89.9854 139.404 90.8434L173.45 120.1M121.552 122.309L151.567 144.847C151.814 145.032 152.099 145.158 152.403 145.212C153.242 145.359 154.008 145.469 154.714 145.532M121.552 122.309L113.878 138.789M173.45 120.1L176.104 122.381C181.513 126.255 184.06 126.68 188.031 125.379L226.913 111.223C227.212 111.114 227.484 110.932 227.7 110.698C232.866 105.104 234.238 103.479 233.014 100.252C232.95 100.085 232.857 99.927 232.748 99.7853C221.941 85.7867 213.576 76.2761 205.888 68.5426M173.45 120.1L162.305 141.508C160.365 144.928 158.362 145.858 154.714 145.532M154.714 145.532L154.057 152.766C154.015 153.229 154.136 153.692 154.399 154.076L175.916 185.507C179.673 190.966 182.852 188.478 187.956 185.306L196.695 178.972M262.48 92.4453L229.283 141.05C223.947 148.9 220.457 153.474 214.277 161.567C214.213 161.65 214.142 161.73 214.066 161.802L199.628 175.559L196.695 178.972M262.48 92.4453C265.58 88.7274 265.151 85.1529 262.576 78.2619C262.49 78.0315 262.36 77.8168 262.197 77.6333L234.652 46.801C234.587 46.7283 234.515 46.6588 234.44 46.5965C226.945 40.3679 222.928 39.5585 215.854 38.5332M262.48 92.4453L295.103 147.278C295.287 147.587 295.386 147.941 295.379 148.301C295.245 155.49 292.362 159.897 285.596 168.346M215.854 38.5332L205.888 68.5426M282.337 172.138L223.804 227.978M282.337 172.138C283.099 171.192 284.895 169.221 285.596 168.346M282.337 172.138L285.596 168.346M223.804 227.978C215.681 231.197 212.279 229.308 207.705 224.081C207.596 223.956 207.501 223.815 207.427 223.666L194.353 197.596C194.237 197.364 194.166 197.108 194.147 196.849C193.43 187.151 194.372 183.333 196.695 178.972M223.804 227.978L223.633 239.264C223.628 239.546 223.684 239.826 223.796 240.085L233.089 261.668C236.908 267.988 240.266 267.745 246.237 265.362C246.397 265.298 246.55 265.212 246.688 265.109L272.319 245.936M113.878 138.789C120.912 143.031 123.925 146.334 128.331 149.902C128.483 150.025 128.62 150.173 128.73 150.335C141.625 169.175 146.532 180.615 156.588 201.861C161.062 213.135 161.761 219.507 163.385 230.776M285.596 168.346L307.921 216.382C308.001 216.554 308.056 216.738 308.084 216.925C309.077 223.573 309.24 228.95 307.911 233.67C303.642 250.023 300.448 258.723 294.37 273.886C294.326 273.998 294.269 274.109 294.204 274.211C290.417 280.174 287.133 282.669 279.969 286.132L228.752 318.415C228.387 318.645 227.958 318.751 227.528 318.717L180.036 314.966C156.922 315.665 144.918 318.915 132.532 326.616C132.412 326.69 132.299 326.779 132.198 326.877C120.68 338.06 113.75 346.895 109.972 354.305" stroke="#17242A" stroke-opacity="0.28" stroke-width="12"/>
</g>
<defs>
<filter id="filter0_b_33_56" x="-3.1239" y="-3.62393" width="321.992" height="364.654" filterUnits="userSpaceOnUse" color-interpolation-filters="sRGB">
<feFlood flood-opacity="0" result="BackgroundImageFix"/>
<feGaussianBlur in="BackgroundImageFix" stdDeviation="2"/>
<feComposite in2="SourceAlpha" operator="in" result="effect1_backgroundBlur_33_56"/>
<feBlend mode="normal" in="SourceGraphic" in2="effect1_backgroundBlur_33_56" result="shape"/>
</filter>
</defs>
</svg>
